<?xml version="1.0" encoding="UTF-8" standalone="no" ?>
<!DOCTYPE svg PUBLIC "-//W3C//DTD SVG 1.1//EN" "http://www.w3.org/Graphics/SVG/1.1/DTD/svg11.dtd">
<svg xmlns="http://www.w3.org/2000/svg" xmlns:xlink="http://www.w3.org/1999/xlink" version="1.1" width="1280" height="1024" viewBox="0 0 1280 1024" xml:space="preserve">
<desc>Created with Fabric.js 5.3.0</desc>
<defs>
</defs>
<g transform="matrix(1 0 0 1 640 512)" id="background-logo"  >
<rect style="stroke: none; stroke-width: 0; stroke-dasharray: none; stroke-linecap: butt; stroke-dashoffset: 0; stroke-linejoin: miter; stroke-miterlimit: 4; fill: rgb(0,0,0); fill-rule: nonzero; opacity: 1;"  paint-order="stroke"  x="-640" y="-512" rx="0" ry="0" width="1280" height="1024" />
</g>
<g transform="matrix(2.116518645604676 0 0 2.1165186456046765 639.1573886639676 450.4921677118828)" id="logo-logo"  >
<g style=""  paint-order="stroke"   >
		<g transform="matrix(1.1349242810559872 0 0 -1.1349242810559872 0 0)"  >
<path style="stroke: none; stroke-width: 1; stroke-dasharray: none; stroke-linecap: butt; stroke-dashoffset: 0; stroke-linejoin: miter; stroke-miterlimit: 4; fill: rgb(66,223,249); fill-rule: nonzero; opacity: 1;"  paint-order="stroke"  transform=" translate(86.36017919159838, 13.755247353796591)" d="M 0 0 C -2.774 -0.147 -5.078 -2.362 -5.325 -5.129 C -5.556 -7.710999999999999 -4.050000000000001 -9.971 -1.8450000000000002 -10.879999999999999 L -1.8450000000000002 -14.645 L -13.482000000000001 -14.645 L -13.482000000000001 -4.792 L -21 -4.792 C -24.734 -4.792 -27.964 -2.1159999999999997 -28.573 1.5670000000000002 C -28.789 2.866 -29.052 4.148 -29.362000000000002 5.413 C -30.253 9.048 -28.356 12.791 -24.917 14.267 L -21.764000000000003 15.62 L -17.738000000000003 8.477999999999998 L -3.687000000000003 14.355999999999998 C -2.502000000000003 13.174999999999997 -0.7980000000000032 12.514999999999999 1.0539999999999967 12.750999999999998 C 3.604999999999997 13.076999999999998 5.646999999999997 15.158999999999997 5.9309999999999965 17.715999999999998 C 6.307999999999996 21.128999999999998 3.6459999999999964 24.019 0.3089999999999966 24.019 C -2.8150000000000035 24.019 -5.349000000000004 21.485999999999997 -5.349000000000004 18.360999999999997 C -5.349000000000004 18.350999999999996 -5.347000000000004 18.339999999999996 -5.347000000000004 18.33 L -15.867000000000004 13.928999999999998 L -19.910000000000004 21.102999999999998 L -26.633000000000003 18.217 C -30.1 16.729 -34.107 17.994 -36.155 21.163 C -36.588 21.831 -37.034 22.489 -37.496 23.136 C -39.694 26.217 -39.393 30.421 -36.716 33.097 L -34.311 35.503 L -28.091 30.229 L -15.843000000000002 42.477 L -22.451 47.361999999999995 L -16.375 53.43899999999999 L -12.893 50.50999999999999 C -13.21 49.60399999999999 -13.317 48.599999999999994 -13.105 47.54299999999999 C -12.618 45.11599999999999 -10.566 43.239999999999995 -8.102 43.00999999999999 C -4.493 42.67199999999999 -1.5 45.727999999999994 -1.9430000000000005 49.35499999999999 C -2.2400000000000007 51.78199999999999 -4.132000000000001 53.77399999999999 -6.538 54.206999999999994 C -7.804 54.434999999999995 -8.998000000000001 54.22599999999999 -10.025 53.72599999999999 L -16.626 59.27799999999999 L -29.032000000000004 46.870999999999995 L -22.424000000000003 41.986 L -28.330000000000002 36.08 L -34.551 41.354 L -39.762 36.141999999999996 C -42.409 33.495 -46.592 33.11899999999999 -49.635 35.29899999999999 C -50.696 36.059999999999995 -51.788 36.78199999999999 -52.907 37.46199999999999 C -56.095 39.40099999999999 -57.382999999999996 43.38499999999999 -55.998 46.84999999999999 L -54.903 49.591999999999985 L -47.976 45.80999999999999 L -43.175 56.02999999999999 C -43.083999999999996 56.024999999999984 -42.994 56.015999999999984 -42.901999999999994 56.015999999999984 C -39.56499999999999 56.015999999999984 -36.90299999999999 58.90399999999998 -37.279999999999994 62.316999999999986 C -37.56699999999999 64.91199999999999 -39.663999999999994 67.00899999999999 -42.257999999999996 67.29499999999999 C -45.67099999999999 67.67199999999998 -48.559999999999995 65.00999999999999 -48.559999999999995 61.67299999999999 C -48.559999999999995 60.201999999999984 -47.992999999999995 58.865999999999985 -47.071999999999996 57.859999999999985 L -49.928 51.78199999999998 L -57.102 55.698999999999984 L -59.992 48.46299999999999 C -61.396 44.94999999999999 -65.137 43.018999999999984 -68.835 43.816999999999986 C -69.61 43.98399999999999 -70.393 44.133999999999986 -71.17999999999999 44.26699999999999 C -74.904 44.89199999999999 -77.651 48.08099999999999 -77.651 51.856999999999985 L -77.651 55.06899999999999 L -74.816 55.06899999999999 C -73.836 52.96899999999999 -71.61 51.566999999999986 -69.084 51.83099999999999 C -66.477 52.10399999999999 -64.36 54.203999999999986 -64.071 56.80999999999999 C -63.693 60.22399999999999 -66.355 63.11399999999999 -69.693 63.11399999999999 C -72.143 63.11399999999999 -74.223 61.55399999999999 -75.00999999999999 59.37599999999999 L -81.958 59.37599999999999 L -81.958 51.85799999999999 C -81.958 48.12499999999999 -84.634 44.89499999999999 -88.317 44.28499999999999 C -89.616 44.069999999999986 -90.898 43.80699999999999 -92.163 43.49699999999999 C -95.798 42.605999999999995 -99.541 44.501999999999995 -101.017 47.940999999999995 L -102.271 50.86299999999999 L -93.808 54.35199999999999 L -102.49700000000001 72.46499999999999 L -109.33500000000001 70.07499999999999 C -110.525 71.41099999999999 -112.33300000000001 72.18499999999999 -114.31400000000001 71.92699999999999 C -116.86000000000001 71.595 -118.894 69.52099999999999 -119.179 66.97 C -119.56 63.554 -116.897 60.661 -113.558 60.661 C -110.53800000000001 60.661 -108.07700000000001 63.03 -107.91600000000001 66.009 L -104.71400000000001 67.128 L -99.662 56.597 L -107.95100000000001 53.18 L -104.96700000000001 46.227 C -103.47900000000001 42.759 -104.74400000000001 38.751999999999995 -107.91300000000001 36.70399999999999 C -108.58100000000002 36.270999999999994 -109.239 35.82399999999999 -109.88600000000001 35.36299999999999 C -112.96700000000001 33.16499999999999 -117.171 33.465999999999994 -119.84700000000001 36.142999999999994 L -124.361 40.657 C -124.02300000000001 41.467999999999996 -123.866 42.373999999999995 -123.947 43.324999999999996 C -124.182 46.086 -126.465 48.312999999999995 -129.231 48.48 C -132.634 48.686 -135.43699999999998 45.882 -135.23 42.479 C -135.06199999999998 39.714 -132.83499999999998 37.432 -130.07399999999998 37.197 C -129.124 37.116 -128.218 37.272000000000006 -127.40599999999998 37.611000000000004 L -122.89199999999998 33.097 C -120.24499999999998 30.450000000000003 -119.86899999999999 26.267000000000003 -122.04899999999998 23.224000000000004 C -122.80999999999997 22.163000000000004 -123.53199999999998 21.071000000000005 -124.21199999999997 19.951000000000004 C -126.15099999999998 16.763000000000005 -130.13599999999997 15.476000000000004 -133.60099999999997 16.860000000000003 L -136.45799999999997 18.001000000000005 L -132.90599999999998 25.405000000000005 L -154.48 35.017 L -157.243 27.602000000000004 C -157.255 27.602000000000004 -157.267 27.604000000000003 -157.279 27.604000000000003 C -160.61599999999999 27.604000000000003 -163.278 24.715000000000003 -162.901 21.302000000000003 C -162.614 18.708000000000002 -160.51700000000002 16.611000000000004 -157.923 16.325000000000003 C -154.51 15.948000000000002 -151.622 18.610000000000003 -151.622 21.946000000000005 C -151.622 23.503000000000004 -152.251 24.912000000000006 -153.268 25.935000000000006 L -152.045 29.217000000000006 L -138.70499999999998 23.273000000000007 L -142.33299999999997 15.710000000000008 L -135.21299999999997 12.867000000000008 C -131.69999999999996 11.464000000000008 -129.76899999999998 7.722000000000008 -130.56699999999998 4.024000000000008 C -130.73399999999998 3.248000000000008 -130.884 2.466000000000008 -131.01699999999997 1.6790000000000078 C -131.64199999999997 -2.0449999999999924 -134.83099999999996 -4.791999999999993 -138.60699999999997 -4.791999999999993 L -141.81899999999996 -4.791999999999993 L -141.81899999999996 4.887000000000008 L -160.94699999999995 4.887000000000008 L -160.94699999999995 -10.322999999999993 L -167.68699999999995 -10.322999999999993 C -168.53299999999996 -7.879999999999994 -170.99999999999994 -6.193999999999994 -173.80399999999995 -6.565999999999994 C -176.34299999999993 -6.902999999999993 -178.36899999999994 -8.978999999999994 -178.65099999999995 -11.523999999999994 C -179.02999999999994 -14.938999999999993 -176.36799999999997 -17.829999999999995 -173.02999999999994 -17.829999999999995 C -170.78799999999995 -17.829999999999995 -168.85499999999993 -16.520999999999994 -167.93999999999994 -14.629999999999995 L -156.64099999999993 -14.629999999999995 L -156.64099999999993 0.58 L -146.12599999999992 0.58 L -146.12599999999992 -9.099 L -138.60899999999992 -9.099 C -134.87499999999991 -9.099 -131.64499999999992 -11.775 -131.0349999999999 -15.459 C -130.8199999999999 -16.758 -130.5569999999999 -18.04 -130.2469999999999 -19.305 C -129.3559999999999 -22.939 -131.2519999999999 -26.682 -134.6909999999999 -28.158 L -141.5329999999999 -31.094 L -138.5979999999999 -38.634 L -154.8819999999999 -44.854 C -156.0309999999999 -43.707 -157.6699999999999 -43.051 -159.45799999999988 -43.229 C -162.1969999999999 -43.5 -164.37299999999988 -45.78 -164.52899999999988 -48.528 C -164.71399999999988 -51.802 -162.1139999999999 -54.515 -158.87999999999988 -54.515 C -155.7559999999999 -54.515 -153.22299999999987 -51.981 -153.22299999999987 -48.857 C -153.22299999999987 -48.849 -153.22399999999988 -48.841 -153.22399999999988 -48.832 L -133.01299999999986 -41.11 L -136.00999999999988 -33.41 L -132.9769999999999 -32.108 C -129.50999999999988 -30.620999999999995 -125.5019999999999 -31.885999999999996 -123.4539999999999 -35.053999999999995 C -123.02099999999989 -35.72299999999999 -122.5739999999999 -36.379999999999995 -122.1129999999999 -37.026999999999994 C -119.9149999999999 -40.108 -120.2159999999999 -44.312999999999995 -122.8929999999999 -46.98799999999999 L -131.0669999999999 -55.163 C -131.8779999999999 -54.824 -132.78499999999988 -54.666999999999994 -133.7359999999999 -54.748999999999995 C -136.4969999999999 -54.983999999999995 -138.7229999999999 -57.267999999999994 -138.8899999999999 -60.032999999999994 C -139.0959999999999 -63.43599999999999 -136.2929999999999 -66.238 -132.8899999999999 -66.03099999999999 C -130.12499999999991 -65.86299999999999 -127.8419999999999 -63.63699999999999 -127.6069999999999 -60.876999999999995 C -127.5259999999999 -59.925999999999995 -127.6829999999999 -59.019999999999996 -128.0209999999999 -58.208 L -119.8469999999999 -50.033 C -117.19999999999989 -47.387 -113.0169999999999 -47.011 -109.97399999999989 -49.19 C -108.9129999999999 -49.951 -107.82099999999988 -50.672999999999995 -106.70199999999988 -51.354 C -103.51399999999988 -53.292 -102.22599999999989 -57.275999999999996 -103.60999999999989 -60.742 L -104.35599999999988 -62.61 L -112.70599999999988 -58.828 L -122.11899999999987 -77.97800000000001 L -111.93799999999987 -82.67600000000002 L -114.62899999999988 -88.67000000000002 C -114.68799999999987 -88.66800000000002 -114.74599999999988 -88.66100000000002 -114.80499999999988 -88.66100000000002 C -118.14199999999988 -88.66100000000002 -120.80399999999987 -91.55000000000001 -120.42699999999988 -94.96300000000002 C -120.14099999999988 -97.55700000000002 -118.04299999999988 -99.65300000000002 -115.44899999999988 -99.94000000000003 C -112.03599999999989 -100.31600000000003 -109.14799999999988 -97.65500000000003 -109.14799999999988 -94.31800000000003 C -109.14799999999988 -92.81200000000003 -109.73999999999988 -91.44600000000003 -110.70099999999988 -90.43300000000002 L -106.26399999999988 -80.55200000000002 L -116.30699999999987 -75.91700000000002 L -110.68199999999987 -64.47300000000001 L -102.02799999999988 -68.39200000000001 L -99.61699999999988 -62.35400000000001 C -98.21299999999988 -58.84200000000001 -94.47199999999988 -56.91000000000001 -90.77299999999988 -57.70800000000001 C -89.99799999999988 -57.87600000000001 -89.21599999999988 -58.02500000000001 -88.42899999999989 -58.158000000000015 C -84.7039999999999 -58.783000000000015 -81.95799999999988 -61.97300000000001 -81.95799999999988 -65.74900000000001 L -81.95799999999988 -73.26800000000001 L -72.62399999999988 -73.26800000000001 L -72.62399999999988 -80.53100000000002 C -74.82899999999988 -81.44000000000003 -76.33599999999988 -83.70100000000002 -76.10399999999989 -86.28200000000002 C -75.85699999999989 -89.05000000000003 -73.55399999999989 -91.26400000000002 -70.77999999999989 -91.41100000000003 C -67.51499999999989 -91.58500000000004 -64.81299999999989 -88.98900000000003 -64.81299999999989 -85.76300000000003 C -64.81299999999989 -83.40000000000003 -66.26199999999989 -81.37900000000003 -68.3169999999999 -80.53100000000003 L -68.3169999999999 -68.96100000000004 L -77.6509999999999 -68.96100000000004 L -77.6509999999999 -65.75000000000004 C -77.6509999999999 -62.017000000000046 -74.9749999999999 -58.786000000000044 -71.2909999999999 -58.17700000000004 C -69.99199999999989 -57.96200000000004 -68.7099999999999 -57.69800000000004 -67.4449999999999 -57.389000000000046 C -63.81099999999989 -56.49700000000004 -60.066999999999894 -58.39400000000005 -58.59199999999989 -61.83300000000005 L -55.56199999999989 -68.89400000000005 L -47.79299999999989 -64.85300000000005 C -46.748999999999896 -65.71300000000005 -45.391999999999896 -66.20600000000005 -43.916999999999895 -66.13500000000005 C -41.120999999999896 -65.99900000000005 -38.79599999999989 -63.76300000000005 -38.5619999999999 -60.97300000000005 C -38.2739999999999 -57.54200000000005 -41.0499999999999 -54.68400000000005 -44.4519999999999 -54.83200000000005 C -46.8169999999999 -54.93600000000005 -48.873999999999896 -56.56800000000005 -49.5959999999999 -58.82300000000005 C -49.843999999999895 -59.59900000000005 -49.8969999999999 -60.34600000000005 -49.8269999999999 -61.05600000000005 L -53.4339999999999 -62.932000000000045 L -54.6409999999999 -60.118000000000045 C -56.1289999999999 -56.65000000000005 -54.8639999999999 -52.64400000000005 -51.6959999999999 -50.59500000000004 C -51.0269999999999 -50.16200000000004 -50.3689999999999 -49.716000000000044 -49.7229999999999 -49.25400000000004 C -46.641999999999896 -47.05600000000004 -42.4379999999999 -47.35700000000004 -39.760999999999896 -50.03400000000004 L -34.449999999999896 -55.34600000000004 L -27.842999999999897 -48.90500000000004 L -19.453999999999898 -57.80300000000004 L -27.526999999999898 -65.01800000000004 L -18.8539999999999 -74.80900000000004 C -19.3609999999999 -75.84100000000004 -19.5729999999999 -77.04400000000004 -19.3429999999999 -78.31600000000005 C -18.9069999999999 -80.72900000000004 -16.9049999999999 -82.62000000000005 -14.4719999999999 -82.90900000000005 C -10.8439999999999 -83.34100000000005 -7.7939999999999 -80.33600000000006 -8.1479999999999 -76.72200000000005 C -8.389999999999901 -74.26500000000006 -10.2669999999999 -72.22400000000005 -12.6879999999999 -71.74300000000005 C -13.7359999999999 -71.53500000000005 -14.7319999999999 -71.64100000000005 -15.631999999999898 -71.95200000000006 L -21.4609999999999 -65.37100000000005 L -13.2869999999999 -58.06600000000005 L -27.7139999999999 -42.76600000000005 L -34.4109999999999 -49.29400000000005 L -36.7169999999999 -46.98800000000005 C -39.3629999999999 -44.34100000000005 -39.7389999999999 -40.15800000000005 -37.5599999999999 -37.11500000000005 C -36.7989999999999 -36.05400000000005 -36.076999999999906 -34.96200000000005 -35.3959999999999 -33.84300000000005 C -33.4579999999999 -30.655000000000054 -29.4739999999999 -29.367000000000054 -26.007999999999903 -30.752000000000052 L -25.867999999999903 -30.808000000000053 C -25.832999999999902 -34.11900000000006 -22.954999999999902 -36.75000000000006 -19.556999999999903 -36.367000000000054 C -16.9689999999999 -36.07600000000006 -14.879999999999903 -33.983000000000054 -14.592999999999902 -31.395000000000053 C -14.212999999999901 -27.980000000000054 -16.8759999999999 -25.090000000000053 -20.213999999999903 -25.090000000000053 C -21.8059999999999 -25.090000000000053 -23.2419999999999 -25.750000000000053 -24.269999999999904 -26.809000000000054 L -24.395999999999905 -26.758000000000056 C -27.907999999999905 -25.354000000000056 -29.839999999999904 -21.613000000000056 -29.041999999999906 -17.915000000000056 C -28.873999999999906 -17.140000000000057 -28.724999999999905 -16.358000000000057 -28.591999999999906 -15.570000000000055 C -27.966999999999906 -11.846000000000055 -24.776999999999905 -9.099000000000055 -21.001999999999907 -9.099000000000055 L -17.788999999999906 -9.099000000000055 L -17.788999999999906 -18.951000000000057 L 2.462 -18.951000000000057 L 2.462 -10.880000000000058 C 4.518000000000001 -10.033000000000058 5.966 -8.011000000000058 5.966 -5.649000000000058 C 5.966 -2.422 3.265 0.173 0 0" stroke-linecap="round" />
</g>
</g>
</g>
<g transform="matrix(1.9211538461538462 0 0 1.9211538461538462 638.7935830145266 718.9809847243359)" id="text-logo"  >
<g style=""  paint-order="stroke"   >
		<g transform="matrix(1 0 0 1 0 0)" id="text-logo-path-0"  >
<path style="stroke: none; stroke-width: 0; stroke-dasharray: none; stroke-linecap: butt; stroke-dashoffset: 0; stroke-linejoin: miter; stroke-miterlimit: 4; fill: rgb(66,228,255); fill-rule: nonzero; opacity: 1;"  paint-order="stroke"  transform=" translate(-72.965, 8.745)" d="M 1.34 0 L 5.13 0 L 5.13 -17.47 L 1.34 -17.47 Z M 16.1 -14.17 L 16.1 0 L 19.89 0 L 19.89 -14.5 C 19.89 -14.78 20.13 -15.04 20.4 -15.04 L 21.87 -15.04 C 22.14 -15.04 22.37 -14.78 22.37 -14.5 L 22.37 0 L 26.15 0 L 26.15 -14.17 C 26.15 -16.56 25.03 -17.75 22.8 -17.75 L 19.45 -17.75 C 17.23 -17.73 16.1 -16.55 16.1 -14.17 Z M 36.89 0 L 40.67 0 L 40.67 -6.86 L 44.51 -6.86 L 44.51 -10.02 L 40.67 -10.02 L 40.67 -14.2 L 44.77 -14.2 L 44.77 -17.47 L 36.89 -17.47 Z M 55.18 -14.17 L 55.18 -3.3 C 55.18 -0.92 56.3 0.26 58.53 0.26 L 62.13 0.26 C 64.36 0.26 65.48 -0.92 65.48 -3.3 L 65.48 -14.17 C 65.48 -16.55 64.36 -17.73 62.13 -17.75 L 58.53 -17.75 C 56.3 -17.73 55.18 -16.55 55.18 -14.17 Z M 58.97 -2.86 L 58.97 -14.63 C 58.97 -14.91 59.2 -15.17 59.48 -15.17 L 61.18 -15.17 C 61.46 -15.17 61.7 -14.91 61.7 -14.63 L 61.7 -2.86 C 61.7 -2.58 61.46 -2.32 61.18 -2.32 L 59.48 -2.32 C 59.2 -2.32 58.97 -2.58 58.97 -2.86 Z M 76.43 -14.17 L 76.43 0 L 80.21 0 L 80.21 -14.5 C 80.21 -14.78 80.45 -15.04 80.73 -15.04 L 82.19 -15.04 C 82.47 -15.04 82.69 -14.78 82.69 -14.5 L 82.69 0 L 86.48 0 L 86.48 -14.17 C 86.48 -16.56 85.36 -17.75 83.13 -17.75 L 79.78 -17.75 C 77.55 -17.73 76.43 -16.55 76.43 -14.17 Z M 97.22 0 L 105.19 0 L 105.19 -3.14 L 101 -3.14 L 101 -7.32 L 104.91 -7.32 L 104.91 -10.28 L 101 -10.28 L 101 -14.4 L 105.19 -14.4 L 105.19 -17.47 L 97.22 -17.47 Z M 115.57 -3.3 C 115.57 -0.92 116.7 0.26 118.92 0.26 L 122.11 0.26 C 124.34 0.26 125.46 -0.92 125.46 -3.3 L 125.46 -7.05 C 125.46 -9.39 124.34 -10.57 122.11 -10.61 L 119.69 -10.61 C 119.38 -10.61 119.17 -10.88 119.17 -11.15 L 119.17 -14.25 C 119.17 -14.55 119.41 -14.79 119.69 -14.79 L 121.16 -14.79 C 121.47 -14.79 121.68 -14.53 121.68 -14.25 L 121.68 -12.88 L 125.28 -12.88 L 125.28 -14.17 C 125.28 -16.56 124.16 -17.75 121.93 -17.75 L 118.92 -17.75 C 116.7 -17.73 115.57 -16.55 115.57 -14.17 L 115.57 -10.69 C 115.57 -8.32 116.7 -7.13 118.92 -7.13 L 121.36 -7.13 C 121.64 -7.13 121.88 -6.87 121.88 -6.59 L 121.88 -3.16 C 121.88 -2.86 121.64 -2.62 121.36 -2.62 L 119.69 -2.62 C 119.38 -2.62 119.17 -2.89 119.17 -3.16 L 119.17 -5.1 L 115.57 -5.1 Z M 135.15 -14.25 L 137.98 -14.25 L 137.98 0 L 141.75 0 L 141.75 -14.25 L 144.59 -14.25 L 144.59 -17.47 L 135.15 -17.47 Z" stroke-linecap="round" />
</g>
</g>
</g>
<g transform="matrix(1.9211538461538462 0 0 1.9211538461538462 639.1881271255061 777.1668466039068)" id="tagline-6c4196fe-aeb7-4634-9677-8b218b5be9d3-logo"  >
<g style=""  paint-order="stroke"   >
		<g transform="matrix(1 0 0 1 0 0)" id="tagline-6c4196fe-aeb7-4634-9677-8b218b5be9d3-logo-path-0"  >
<path style="stroke: rgb(255,255,255); stroke-width: 0; stroke-dasharray: none; stroke-linecap: butt; stroke-dashoffset: 0; stroke-linejoin: miter; stroke-miterlimit: 4; fill: rgb(66,228,255); fill-rule: nonzero; opacity: 1;"  paint-order="stroke"  transform=" translate(-255.04000000000002, 5.6)" d="M 5.18 -11.2 L 1.76 -1.22 C 1.58 -0.7 1.09 -0.4 0.53 -0.08 L 0.54 0 L 2.3 0 L 2.32 -0.08 C 1.76 -0.4 1.74 -0.7 1.92 -1.22 L 2.9 -4.08 L 6.38 -4.08 L 7.46 -1.2 C 7.65 -0.7 7.65 -0.4 7.09 -0.08 L 7.1 0 L 10.46 0 L 10.48 -0.08 C 9.92 -0.4 9.41 -0.7 9.22 -1.2 L 5.5 -11.2 Z M 2.96 -4.24 L 4.56 -8.93 L 6.32 -4.24 Z M 19.06 -9.92 L 19.06 -1.28 C 19.06 -0.75 18.8 -0.4 18.24 -0.08 L 18.26 0 L 21.62 0 L 21.63 -0.08 C 21.07 -0.4 20.82 -0.75 20.82 -1.28 L 20.82 -9.92 C 20.82 -10.45 21.07 -10.8 21.63 -11.12 L 21.62 -11.2 L 18.26 -11.2 L 18.24 -11.12 C 18.8 -10.8 19.06 -10.45 19.06 -9.92 Z M 29.39 -5.84 L 29.39 -5.68 L 34.38 -5.68 L 34.38 -5.84 Z M 42.96 -9.92 L 42.96 -1.28 C 42.96 -0.75 42.7 -0.4 42.14 -0.08 L 42.16 0 L 45.52 0 L 45.54 -0.08 C 44.98 -0.4 44.72 -0.75 44.72 -1.28 L 44.72 -4.56 L 46.43 -4.56 C 48.74 -4.56 49.94 -5.94 49.94 -7.89 C 49.94 -9.9 48.67 -11.2 46.43 -11.2 L 42.16 -11.2 L 42.14 -11.12 C 42.7 -10.8 42.96 -10.45 42.96 -9.92 Z M 46.27 -11.04 C 47.68 -11.04 48.06 -10.05 48.06 -7.89 C 48.06 -5.68 47.63 -4.72 46.27 -4.72 L 44.72 -4.72 L 44.72 -11.04 Z M 61.94 0.16 C 64.61 0.16 66.34 -2.24 66.34 -5.6 C 66.34 -9.1 64.51 -11.36 61.94 -11.36 C 59.26 -11.36 57.54 -8.96 57.54 -5.6 C 57.54 -2.1 59.36 0.16 61.94 0.16 Z M 61.94 0 C 60.19 0 59.62 -1.41 59.62 -5.6 C 59.62 -9.81 60.19 -11.2 61.94 -11.2 C 63.68 -11.2 64.26 -9.81 64.26 -5.6 C 64.26 -1.41 63.68 0 61.94 0 Z M 78.43 0 L 80.43 -5.84 L 82.59 0 L 82.91 0 L 86.34 -9.98 C 86.51 -10.5 87.01 -10.8 87.57 -11.12 L 87.55 -11.2 L 85.79 -11.2 L 85.78 -11.12 C 86.34 -10.8 86.35 -10.5 86.18 -9.98 L 83.54 -2.27 L 80.64 -10 C 80.45 -10.5 80.45 -10.8 81.01 -11.12 L 80.99 -11.2 L 77.63 -11.2 L 77.62 -11.12 C 78.18 -10.8 78.69 -10.5 78.88 -10 L 80.34 -6.06 L 79.06 -2.29 L 76.16 -10 C 75.97 -10.5 75.97 -10.8 76.53 -11.12 L 76.51 -11.2 L 73.15 -11.2 L 73.14 -11.12 C 73.7 -10.8 74.21 -10.5 74.4 -10 L 78.11 0 Z M 96.14 -9.92 L 96.14 -1.28 C 96.14 -0.75 95.89 -0.4 95.33 -0.08 L 95.34 0 L 102.82 0 L 102.82 -1.76 L 102.7 -1.79 C 102.22 -0.67 101.7 -0.16 100.9 -0.16 L 97.9 -0.16 L 97.9 -5.68 L 99.3 -5.68 C 100.1 -5.68 100.62 -5.3 101.1 -4.46 L 101.22 -4.48 L 101.22 -7.04 L 101.1 -7.07 C 100.62 -6.22 100.1 -5.84 99.3 -5.84 L 97.9 -5.84 L 97.9 -11.04 L 100.9 -11.04 C 101.7 -11.04 102.22 -10.53 102.7 -9.41 L 102.82 -9.44 L 102.82 -11.2 L 95.34 -11.2 L 95.33 -11.12 C 95.89 -10.8 96.14 -10.45 96.14 -9.92 Z M 111.39 -9.92 L 111.39 -1.28 C 111.39 -0.75 111.14 -0.4 110.58 -0.08 L 110.59 0 L 113.95 0 L 113.97 -0.08 C 113.41 -0.4 113.15 -0.75 113.15 -1.28 L 113.15 -4.88 L 114.26 -4.88 L 115.95 -1.17 C 116.18 -0.69 116.22 -0.4 115.66 -0.08 L 115.68 0 L 119.04 0 L 119.06 -0.08 C 118.5 -0.4 117.94 -0.69 117.71 -1.17 L 115.97 -5.02 C 117.42 -5.39 118.21 -6.5 118.21 -8.05 C 118.21 -10.06 116.94 -11.2 114.7 -11.2 L 110.59 -11.2 L 110.58 -11.12 C 111.14 -10.8 111.39 -10.45 111.39 -9.92 Z M 114.54 -11.04 C 115.95 -11.04 116.34 -10.21 116.34 -8.05 C 116.34 -5.84 115.9 -5.04 114.54 -5.04 L 113.15 -5.04 L 113.15 -11.04 Z M 127.63 -9.92 L 127.63 -1.28 C 127.63 -0.75 127.38 -0.4 126.82 -0.08 L 126.83 0 L 134.3 0 L 134.3 -1.76 L 134.19 -1.79 C 133.71 -0.67 133.18 -0.16 132.38 -0.16 L 129.39 -0.16 L 129.39 -5.68 L 130.78 -5.68 C 131.58 -5.68 132.11 -5.3 132.59 -4.46 L 132.7 -4.48 L 132.7 -7.04 L 132.59 -7.07 C 132.11 -6.22 131.58 -5.84 130.78 -5.84 L 129.39 -5.84 L 129.39 -11.04 L 132.38 -11.04 C 133.18 -11.04 133.71 -10.53 134.19 -9.41 L 134.3 -9.44 L 134.3 -11.2 L 126.83 -11.2 L 126.82 -11.12 C 127.38 -10.8 127.63 -10.45 127.63 -9.92 Z M 142.88 -9.92 L 142.88 -1.28 C 142.88 -0.75 142.62 -0.4 142.06 -0.08 L 142.08 0 L 145.87 0 C 149.02 0 150.75 -2.24 150.75 -5.6 C 150.75 -9.1 148.93 -11.2 145.87 -11.2 L 142.08 -11.2 L 142.06 -11.12 C 142.62 -10.8 142.88 -10.45 142.88 -9.92 Z M 145.87 -11.04 C 148 -11.04 148.67 -9.33 148.67 -5.6 C 148.67 -1.66 147.97 -0.16 145.87 -0.16 L 144.64 -0.16 L 144.64 -11.04 Z M 170.03 -9.92 L 170.03 -1.28 C 170.03 -0.75 169.78 -0.4 169.22 -0.08 L 169.23 0 L 172.59 0 L 172.61 -0.08 C 172.05 -0.4 171.79 -0.75 171.79 -1.28 L 171.79 -4.56 L 173.5 -4.56 C 175.81 -4.56 177.01 -5.94 177.01 -7.89 C 177.01 -9.9 175.74 -11.2 173.5 -11.2 L 169.23 -11.2 L 169.22 -11.12 C 169.78 -10.8 170.03 -10.45 170.03 -9.92 Z M 173.34 -11.04 C 174.75 -11.04 175.14 -10.05 175.14 -7.89 C 175.14 -5.68 174.7 -4.72 173.34 -4.72 L 171.79 -4.72 L 171.79 -11.04 Z M 185.42 -9.92 L 185.42 -1.28 C 185.42 -0.75 185.17 -0.4 184.61 -0.08 L 184.62 0 L 192.1 0 L 192.1 -1.76 L 191.98 -1.79 C 191.5 -0.67 190.98 -0.16 190.18 -0.16 L 187.18 -0.16 L 187.18 -5.68 L 188.58 -5.68 C 189.38 -5.68 189.9 -5.3 190.38 -4.46 L 190.5 -4.48 L 190.5 -7.04 L 190.38 -7.07 C 189.9 -6.22 189.38 -5.84 188.58 -5.84 L 187.18 -5.84 L 187.18 -11.04 L 190.18 -11.04 C 190.98 -11.04 191.5 -10.53 191.98 -9.41 L 192.1 -9.44 L 192.1 -11.2 L 184.62 -11.2 L 184.61 -11.12 C 185.17 -10.8 185.42 -10.45 185.42 -9.92 Z M 200.67 -9.92 L 200.67 -1.28 C 200.67 -0.75 200.42 -0.4 199.86 -0.08 L 199.87 0 L 203.23 0 L 203.25 -0.08 C 202.69 -0.4 202.43 -0.75 202.43 -1.28 L 202.43 -4.88 L 203.54 -4.88 L 205.23 -1.17 C 205.46 -0.69 205.5 -0.4 204.94 -0.08 L 204.96 0 L 208.32 0 L 208.34 -0.08 C 207.78 -0.4 207.22 -0.69 206.99 -1.17 L 205.25 -5.02 C 206.7 -5.39 207.49 -6.5 207.49 -8.05 C 207.49 -10.06 206.22 -11.2 203.98 -11.2 L 199.87 -11.2 L 199.86 -11.12 C 200.42 -10.8 200.67 -10.45 200.67 -9.92 Z M 203.82 -11.04 C 205.23 -11.04 205.62 -10.21 205.62 -8.05 C 205.62 -5.84 205.18 -5.04 203.82 -5.04 L 202.43 -5.04 L 202.43 -11.04 Z M 219.76 0.16 C 221.86 0.16 223.39 -1.33 223.39 -3.23 C 223.39 -6.98 217.17 -6.19 217.17 -9.1 C 217.17 -10.24 218.35 -11.2 219.66 -11.2 C 220.75 -11.2 221.65 -10.75 222.11 -9.95 C 222.38 -9.49 222.3 -9.23 222.14 -9.33 C 222.05 -9.38 221.95 -9.39 221.86 -9.39 C 221.46 -9.39 221.15 -9.09 221.15 -8.7 C 221.15 -8.3 221.46 -8 221.86 -8 C 222.24 -8 222.54 -8.3 222.54 -8.86 C 222.54 -10.46 221.25 -11.36 219.66 -11.36 C 217.76 -11.36 216.16 -10.14 216.16 -8.4 C 216.16 -4.54 222.35 -5.22 222.35 -2.51 C 222.35 -1.23 221.25 0 219.76 0 C 217.82 0 216.61 -0.99 216.26 -2.96 L 216.1 -2.96 C 216.45 -0.9 217.76 0.16 219.76 0.16 Z M 235.55 0.16 C 238.22 0.16 239.95 -2.24 239.95 -5.6 C 239.95 -9.1 238.13 -11.36 235.55 -11.36 C 232.88 -11.36 231.15 -8.96 231.15 -5.6 C 231.15 -2.1 232.98 0.16 235.55 0.16 Z M 235.55 0 C 233.81 0 233.23 -1.41 233.23 -5.6 C 233.23 -9.81 233.81 -11.2 235.55 -11.2 C 237.3 -11.2 237.87 -9.81 237.87 -5.6 C 237.87 -1.41 237.3 0 235.55 0 Z M 248.53 -9.92 L 248.53 -1.28 C 248.53 -0.75 248.27 -0.4 247.71 -0.08 L 247.73 0 L 249.49 0 L 249.5 -0.08 C 248.94 -0.4 248.69 -0.75 248.69 -1.28 L 248.69 -8.7 L 255.25 0 L 255.41 0 L 255.41 -9.92 C 255.41 -10.45 255.66 -10.8 256.22 -11.12 L 256.21 -11.2 L 254.45 -11.2 L 254.43 -11.12 C 254.99 -10.8 255.25 -10.45 255.25 -9.92 L 255.25 -2.77 L 248.9 -11.2 L 247.73 -11.2 L 247.71 -11.12 C 248.27 -10.8 248.53 -10.45 248.53 -9.92 Z M 268.64 -11.2 L 265.22 -1.22 C 265.04 -0.7 264.54 -0.4 263.98 -0.08 L 264 0 L 265.76 0 L 265.78 -0.08 C 265.22 -0.4 265.2 -0.7 265.38 -1.22 L 266.35 -4.08 L 269.84 -4.08 L 270.91 -1.2 C 271.1 -0.7 271.1 -0.4 270.54 -0.08 L 270.56 0 L 273.92 0 L 273.94 -0.08 C 273.38 -0.4 272.86 -0.7 272.67 -1.2 L 268.96 -11.2 Z M 266.42 -4.24 L 268.02 -8.93 L 269.78 -4.24 Z M 282.51 -9.92 L 282.51 -1.28 C 282.51 -0.75 282.26 -0.4 281.7 -0.08 L 281.71 0 L 289.18 0 L 289.18 -1.76 L 289.07 -1.79 C 288.59 -0.67 288.06 -0.16 287.26 -0.16 L 284.27 -0.16 L 284.27 -9.92 C 284.27 -10.45 284.53 -10.8 285.09 -11.12 L 285.07 -11.2 L 281.71 -11.2 L 281.7 -11.12 C 282.26 -10.8 282.51 -10.45 282.51 -9.92 Z M 308.46 -9.92 L 308.46 -1.28 C 308.46 -0.75 308.21 -0.4 307.65 -0.08 L 307.66 0 L 311.02 0 L 311.04 -0.08 C 310.48 -0.4 310.22 -0.75 310.22 -1.28 L 310.22 -9.92 C 310.22 -10.45 310.48 -10.8 311.04 -11.12 L 311.02 -11.2 L 307.66 -11.2 L 307.65 -11.12 C 308.21 -10.8 308.46 -10.45 308.46 -9.92 Z M 310.22 -4.98 L 313.42 -0.99 C 313.76 -0.59 313.97 -0.4 313.41 -0.08 L 313.42 0 L 317.26 0 L 317.28 -0.08 C 316.72 -0.4 315.98 -0.58 315.65 -0.99 L 311.34 -6.22 L 314.4 -10.19 C 314.72 -10.61 315.44 -10.8 316 -11.12 L 315.98 -11.2 L 314.22 -11.2 L 314.21 -11.12 C 314.77 -10.8 314.56 -10.61 314.24 -10.19 Z M 325.86 -9.92 L 325.86 -1.28 C 325.86 -0.75 325.6 -0.4 325.04 -0.08 L 325.06 0 L 326.82 0 L 326.83 -0.08 C 326.27 -0.4 326.02 -0.75 326.02 -1.28 L 326.02 -8.7 L 332.58 0 L 332.74 0 L 332.74 -9.92 C 332.74 -10.45 332.99 -10.8 333.55 -11.12 L 333.54 -11.2 L 331.78 -11.2 L 331.76 -11.12 C 332.32 -10.8 332.58 -10.45 332.58 -9.92 L 332.58 -2.77 L 326.22 -11.2 L 325.06 -11.2 L 325.04 -11.12 C 325.6 -10.8 325.86 -10.45 325.86 -9.92 Z M 345.71 0.16 C 348.38 0.16 350.11 -2.24 350.11 -5.6 C 350.11 -9.1 348.29 -11.36 345.71 -11.36 C 343.04 -11.36 341.31 -8.96 341.31 -5.6 C 341.31 -2.1 343.14 0.16 345.71 0.16 Z M 345.71 0 C 343.97 0 343.39 -1.41 343.39 -5.6 C 343.39 -9.81 343.97 -11.2 345.71 -11.2 C 347.46 -11.2 348.03 -9.81 348.03 -5.6 C 348.03 -1.41 347.46 0 345.71 0 Z M 362.21 0 L 364.21 -5.84 L 366.37 0 L 366.69 0 L 370.11 -9.98 C 370.29 -10.5 370.78 -10.8 371.34 -11.12 L 371.33 -11.2 L 369.57 -11.2 L 369.55 -11.12 C 370.11 -10.8 370.13 -10.5 369.95 -9.98 L 367.31 -2.27 L 364.42 -10 C 364.22 -10.5 364.22 -10.8 364.78 -11.12 L 364.77 -11.2 L 361.41 -11.2 L 361.39 -11.12 C 361.95 -10.8 362.46 -10.5 362.66 -10 L 364.11 -6.06 L 362.83 -2.29 L 359.94 -10 C 359.74 -10.5 359.74 -10.8 360.3 -11.12 L 360.29 -11.2 L 356.93 -11.2 L 356.91 -11.12 C 357.47 -10.8 357.98 -10.5 358.18 -10 L 361.89 0 Z M 379.92 -9.92 L 379.92 -1.28 C 379.92 -0.75 379.66 -0.4 379.1 -0.08 L 379.12 0 L 386.59 0 L 386.59 -1.76 L 386.48 -1.79 C 386 -0.67 385.47 -0.16 384.67 -0.16 L 381.68 -0.16 L 381.68 -9.92 C 381.68 -10.45 381.94 -10.8 382.5 -11.12 L 382.48 -11.2 L 379.12 -11.2 L 379.1 -11.12 C 379.66 -10.8 379.92 -10.45 379.92 -9.92 Z M 395.17 -9.92 L 395.17 -1.28 C 395.17 -0.75 394.91 -0.4 394.35 -0.08 L 394.37 0 L 401.84 0 L 401.84 -1.76 L 401.73 -1.79 C 401.25 -0.67 400.72 -0.16 399.92 -0.16 L 396.93 -0.16 L 396.93 -5.68 L 398.32 -5.68 C 399.12 -5.68 399.65 -5.3 400.13 -4.46 L 400.24 -4.48 L 400.24 -7.04 L 400.13 -7.07 C 399.65 -6.22 399.12 -5.84 398.32 -5.84 L 396.93 -5.84 L 396.93 -11.04 L 399.92 -11.04 C 400.72 -11.04 401.25 -10.53 401.73 -9.41 L 401.84 -9.44 L 401.84 -11.2 L 394.37 -11.2 L 394.35 -11.12 C 394.91 -10.8 395.17 -10.45 395.17 -9.92 Z M 410.42 -9.92 L 410.42 -1.28 C 410.42 -0.75 410.16 -0.4 409.6 -0.08 L 409.62 0 L 413.41 0 C 416.56 0 418.29 -2.24 418.29 -5.6 C 418.29 -9.1 416.46 -11.2 413.41 -11.2 L 409.62 -11.2 L 409.6 -11.12 C 410.16 -10.8 410.42 -10.45 410.42 -9.92 Z M 413.41 -11.04 C 415.54 -11.04 416.21 -9.33 416.21 -5.6 C 416.21 -1.66 415.5 -0.16 413.41 -0.16 L 412.18 -0.16 L 412.18 -11.04 Z M 431.09 0.16 C 431.98 0.16 432.75 -0.13 433.31 -0.77 L 434.22 0.02 L 434.38 0 L 434.38 -5.28 L 431.82 -5.28 L 431.81 -5.2 C 432.37 -4.88 432.62 -4.53 432.62 -4 L 432.62 -0.38 C 432.19 -0.11 431.68 0 431.09 0 C 429.34 0 428.77 -1.41 428.77 -5.6 C 428.77 -9.81 429.34 -11.2 431.09 -11.2 C 432.18 -11.2 433.07 -10.75 433.54 -9.95 C 433.81 -9.49 433.73 -9.23 433.57 -9.33 C 433.47 -9.38 433.38 -9.39 433.28 -9.39 C 432.88 -9.39 432.58 -9.09 432.58 -8.7 C 432.58 -8.3 432.88 -8 433.28 -8 C 433.66 -8 433.97 -8.3 433.97 -8.86 C 433.97 -10.46 432.67 -11.36 431.09 -11.36 C 428.42 -11.36 426.69 -8.96 426.69 -5.6 C 426.69 -2.1 428.51 0.16 431.09 0.16 Z M 442.96 -9.92 L 442.96 -1.28 C 442.96 -0.75 442.7 -0.4 442.14 -0.08 L 442.16 0 L 449.63 0 L 449.63 -1.76 L 449.52 -1.79 C 449.04 -0.67 448.51 -0.16 447.71 -0.16 L 444.72 -0.16 L 444.72 -5.68 L 446.11 -5.68 C 446.91 -5.68 447.44 -5.3 447.92 -4.46 L 448.03 -4.48 L 448.03 -7.04 L 447.92 -7.07 C 447.44 -6.22 446.91 -5.84 446.11 -5.84 L 444.72 -5.84 L 444.72 -11.04 L 447.71 -11.04 C 448.51 -11.04 449.04 -10.53 449.52 -9.41 L 449.63 -9.44 L 449.63 -11.2 L 442.16 -11.2 L 442.14 -11.12 C 442.7 -10.8 442.96 -10.45 442.96 -9.92 Z M 468.91 -9.92 L 468.91 -1.28 C 468.91 -0.75 468.66 -0.4 468.1 -0.08 L 468.11 0 L 471.47 0 L 471.49 -0.08 C 470.93 -0.4 470.67 -0.75 470.67 -1.28 L 470.67 -5.68 L 474.83 -5.68 L 474.83 -1.28 C 474.83 -0.75 474.58 -0.4 474.02 -0.08 L 474.03 0 L 477.39 0 L 477.41 -0.08 C 476.85 -0.4 476.59 -0.75 476.59 -1.28 L 476.59 -9.92 C 476.59 -10.45 476.85 -10.8 477.41 -11.12 L 477.39 -11.2 L 474.03 -11.2 L 474.02 -11.12 C 474.58 -10.8 474.83 -10.45 474.83 -9.92 L 474.83 -5.84 L 470.67 -5.84 L 470.67 -9.92 C 470.67 -10.45 470.93 -10.8 471.49 -11.12 L 471.47 -11.2 L 468.11 -11.2 L 468.1 -11.12 C 468.66 -10.8 468.91 -10.45 468.91 -9.92 Z M 489.42 0.16 C 491.46 0.16 492.86 -1.33 492.86 -3.28 L 492.86 -9.92 C 492.86 -10.45 493.12 -10.8 493.68 -11.12 L 493.66 -11.2 L 491.9 -11.2 L 491.89 -11.12 C 492.45 -10.8 492.7 -10.45 492.7 -9.92 L 492.7 -3.28 C 492.7 -1.79 491.65 -0.8 490.22 -0.8 C 488.74 -0.8 487.74 -1.86 487.74 -3.28 L 487.74 -9.92 C 487.74 -10.45 488 -10.8 488.56 -11.12 L 488.54 -11.2 L 485.18 -11.2 L 485.17 -11.12 C 485.73 -10.8 485.98 -10.45 485.98 -9.92 L 485.98 -3.28 C 485.98 -1.23 487.46 0.16 489.42 0.16 Z M 502.26 -9.92 L 502.26 -1.28 C 502.26 -0.75 502 -0.4 501.44 -0.08 L 501.46 0 L 505.73 0 C 508.26 0 509.55 -1.2 509.55 -3.33 C 509.55 -4.96 508.37 -6.19 506.69 -6.54 C 508.03 -6.77 508.66 -7.55 508.66 -8.85 C 508.66 -10.24 507.44 -11.2 505.86 -11.2 L 501.46 -11.2 L 501.44 -11.12 C 502 -10.8 502.26 -10.45 502.26 -9.92 Z M 505.57 -6.48 C 507.15 -6.48 507.68 -5.62 507.68 -3.33 C 507.68 -1.2 506.94 -0.16 505.57 -0.16 L 504.02 -0.16 L 504.02 -6.48 Z M 505.44 -6.64 L 504.02 -6.64 L 504.02 -11.04 L 505.44 -11.04 C 506.62 -11.04 507.01 -10.45 507.01 -8.85 C 507.01 -7.36 506.46 -6.64 505.44 -6.64 Z" stroke-linecap="round" />
</g>
</g>
</g>
<g transform="matrix(1.9211538461538462 0 0 1.9211538461538462 639.5013721929562 429.8700704327547)" id="tagline-a35f82f6-24ed-4f3d-ba58-000310eb7efc-logo"  >
<g style=""  paint-order="stroke"   >
		<g transform="matrix(1 0 0 1 0 0)" id="tagline-a35f82f6-24ed-4f3d-ba58-000310eb7efc-logo-path-0"  >
<filter id="SVGID_150384" y="-25.90202535574569%" height="151.80405071149139%" x="-39.03444159351764%" width="178.06888318703528%" >
	<feGaussianBlur in="SourceAlpha" stdDeviation="0"></feGaussianBlur>
	<feOffset dx="4.105263157894739" dy="4.105263157894739" result="oBlur" ></feOffset>
	<feFlood flood-color="rgb(40,146,164)" flood-opacity="1"/>
	<feComposite in2="oBlur" operator="in" />
	<feMerge>
		<feMergeNode></feMergeNode>
		<feMergeNode in="SourceGraphic"></feMergeNode>
	</feMerge>
</filter>
<path style="stroke: rgb(65,216,247); stroke-width: 4.521739130434782; stroke-dasharray: none; stroke-linecap: butt; stroke-dashoffset: 0; stroke-linejoin: miter; stroke-miterlimit: 4; fill: rgb(3,17,83); fill-rule: nonzero; opacity: 1;filter: url(#SVGID_150384);"  paint-order="stroke"  transform=" translate(-13.77375261241265, 30.745982927772502)" d="M 12.56 -65.13 C 11.86 -64.9 10.92 -64.66 9.91 -64.43 C 7.96 -63.88 6.47 -62.79 5.46 -61.15 C 4.52 -59.51 4.13 -57.72 4.29 -55.77 C 4.91 -50.47 8.42 -46.88 12.87 -46.96 C 16.85 -47.03 21.14 -50.47 22 -54.13 C 22.46 -56.24 22.31 -58.34 21.53 -60.45 C 20.83 -62.24 19.03 -64.27 17.47 -64.97 C 15.91 -65.68 14.27 -65.68 12.56 -65.13 Z M 9.05 -41.34 C 7.64 -40.87 6.47 -39.78 5.62 -38.06 C 4.13 -35.18 4.13 -35.33 4.45 -33.46 C 4.84 -30.65 4.6 -26.05 3.74 -19.58 C 1.64 -4.6 3.9 2.42 11.15 3.9 C 16.22 4.91 20.98 0.08 23.17 -8.42 C 26.05 -19.97 24.34 -32.84 19.03 -38.22 C 16.46 -40.95 11.86 -42.35 9.05 -41.34 Z" stroke-linecap="round" />
</g>
</g>
</g>
</svg>